<?xml version="1.0" encoding="utf-8"?>
<!-- Generator: Adobe Illustrator 22.1.0, SVG Export Plug-In . SVG Version: 6.00 Build 0)  -->
<svg version="1.1" id="Github" xmlns="http://www.w3.org/2000/svg" xmlns:xlink="http://www.w3.org/1999/xlink" x="0px" y="0px"
	 viewBox="0 0 16.9 16.5" style="enable-background:new 0 0 16.9 16.5;" xml:space="preserve">
<style type="text/css">
	.st0{fill: white;}
</style>
<path class="st0" d="M15.8,4.2C15,2.9,14,1.9,12.7,1.1C11.4,0.4,10,0,8.5,0c-1.5,0-3,0.4-4.2,1.1C2.9,1.9,1.9,2.9,1.1,4.2
	C0.4,5.5,0,6.9,0,8.5c0,1.8,0.5,3.5,1.6,5c1.1,1.5,2.5,2.5,4.2,3.1c0.2,0,0.3,0,0.4-0.1c0.1-0.1,0.1-0.2,0.1-0.3c0,0,0-0.2,0-0.6
	c0-0.4,0-0.7,0-1l-0.3,0c-0.2,0-0.4,0-0.6,0c-0.2,0-0.5,0-0.8-0.1c-0.3,0-0.5-0.2-0.7-0.3c-0.2-0.2-0.4-0.4-0.5-0.7l-0.1-0.3
	c-0.1-0.2-0.2-0.4-0.3-0.6c-0.2-0.2-0.3-0.3-0.5-0.4l-0.1-0.1c-0.1,0-0.1-0.1-0.1-0.1c0-0.1-0.1-0.1-0.1-0.2c0-0.1,0-0.1,0.1-0.1
	c0.1,0,0.2,0,0.3,0l0.2,0c0.1,0,0.3,0.1,0.5,0.3c0.2,0.1,0.4,0.3,0.5,0.6c0.2,0.3,0.4,0.5,0.6,0.7c0.2,0.2,0.5,0.2,0.7,0.2
	c0.2,0,0.5,0,0.6-0.1c0.2,0,0.3-0.1,0.5-0.2c0.1-0.5,0.2-0.9,0.5-1.1c-0.4,0-0.8-0.1-1.1-0.2c-0.3-0.1-0.7-0.2-1-0.4
	c-0.4-0.2-0.7-0.4-0.9-0.7c-0.2-0.3-0.4-0.7-0.6-1.2C3.1,9.2,3.1,8.6,3.1,8c0-0.9,0.3-1.6,0.9-2.3C3.7,5.1,3.7,4.3,4,3.5
	c0.2-0.1,0.5,0,0.9,0.1C5.4,3.8,5.7,4,5.9,4.1c0.2,0.1,0.4,0.2,0.5,0.3C7,4.2,7.7,4.1,8.5,4.1s1.4,0.1,2.1,0.3L11,4.1
	c0.3-0.2,0.6-0.3,1-0.5c0.4-0.1,0.7-0.2,0.9-0.1c0.3,0.8,0.4,1.6,0.1,2.2c0.6,0.6,0.9,1.4,0.9,2.3c0,0.6-0.1,1.2-0.2,1.7
	c-0.2,0.5-0.3,0.9-0.6,1.2c-0.2,0.3-0.5,0.5-0.9,0.7c-0.4,0.2-0.7,0.3-1,0.4c-0.3,0.1-0.7,0.2-1.1,0.2c0.4,0.3,0.6,0.9,0.6,1.6
	v2.3c0,0.1,0,0.2,0.1,0.3c0.1,0.1,0.2,0.1,0.4,0.1c1.7-0.6,3.1-1.6,4.2-3.1c1.1-1.5,1.6-3.1,1.6-5C16.9,6.9,16.5,5.5,15.8,4.2z"/>
</svg>
