<?xml version="1.0" encoding="utf-8"?>
<!-- Generator: Adobe Illustrator 22.1.0, SVG Export Plug-In . SVG Version: 6.00 Build 0)  -->
<svg version="1.1" id="Capa_1" xmlns="http://www.w3.org/2000/svg" xmlns:xlink="http://www.w3.org/1999/xlink" x="0px" y="0px"
	 viewBox="0 0 283.5 283.5" style="enable-background:new 0 0 283.5 283.5;" xml:space="preserve">
<style type="text/css">
	.st0{enable-background:new    ;}
	.st1{fill:#FFFFFF;}
	.st2{fill:#C23334;stroke:#FFFFFF;stroke-width:10;stroke-miterlimit:10;}
</style>
<g>
	<g class="st0">
		<path class="st1" d="M104.7,99.5V83.6h74.1c-4.1,10.1-8.1,20.1-12,29.8c-3.9,9.8-7.7,19.4-11.5,29c-3.8,9.6-7.5,19.2-11.3,28.7
			c-3.8,9.5-7.5,19.1-11.3,28.8h-18.4c6-15.4,12.4-31.7,19.1-49c6.7-17.2,13.4-34.4,20.1-51.4H104.7z"/>
	</g>
	<g>
		<path class="st2" d="M193.8,258.7H89.7c-15.6,0-28.3-12.8-28.3-28.3V53.1c0-15.6,12.8-28.3,28.3-28.3h104.1
			c15.6,0,28.3,12.8,28.3,28.3v177.2C222.2,245.9,209.4,258.7,193.8,258.7z"/>
		<g>
			<path class="st1" d="M97.5,91.3v-19H186c-4.9,12.1-9.7,24-14.3,35.6c-4.6,11.7-9.2,23.2-13.7,34.7c-4.5,11.5-9,22.9-13.5,34.2
				c-4.5,11.4-9,22.8-13.5,34.4h-21.9c7.2-18.4,14.8-37.9,22.8-58.5c8-20.6,16-41.1,24-61.4H97.5z"/>
		</g>
	</g>
</g>
</svg>
